<svg id="visual" viewBox="0 0 900 600" width="900" height="600" xmlns="http://www.w3.org/2000/svg" xmlns:xlink="http://www.w3.org/1999/xlink" version="1.1"><path d="M0 31L13.7 37C27.3 43 54.7 55 82 59C109.3 63 136.7 59 163.8 59C191 59 218 63 245.2 67C272.3 71 299.7 75 327 73C354.3 71 381.7 63 409 61C436.3 59 463.7 63 491 64C518.3 65 545.7 63 573 58C600.3 53 627.7 45 654.8 47C682 49 709 61 736.2 67C763.3 73 790.7 73 818 71C845.3 69 872.7 65 886.3 63L900 61L900 0L886.3 0C872.7 0 845.3 0 818 0C790.7 0 763.3 0 736.2 0C709 0 682 0 654.8 0C627.7 0 600.3 0 573 0C545.7 0 518.3 0 491 0C463.7 0 436.3 0 409 0C381.7 0 354.3 0 327 0C299.7 0 272.3 0 245.2 0C218 0 191 0 163.8 0C136.7 0 109.3 0 82 0C54.7 0 27.3 0 13.7 0L0 0Z" fill="#ffffff"></path><path d="M0 115L13.7 120C27.3 125 54.7 135 82 149C109.3 163 136.7 181 163.8 184C191 187 218 175 245.2 180C272.3 185 299.7 207 327 214C354.3 221 381.7 213 409 209C436.3 205 463.7 205 491 207C518.3 209 545.7 213 573 208C600.3 203 627.7 189 654.8 190C682 191 709 207 736.2 203C763.3 199 790.7 175 818 158C845.3 141 872.7 131 886.3 126L900 121L900 59L886.3 61C872.7 63 845.3 67 818 69C790.7 71 763.3 71 736.2 65C709 59 682 47 654.8 45C627.7 43 600.3 51 573 56C545.7 61 518.3 63 491 62C463.7 61 436.3 57 409 59C381.7 61 354.3 69 327 71C299.7 73 272.3 69 245.2 65C218 61 191 57 163.8 57C136.7 57 109.3 61 82 57C54.7 53 27.3 41 13.7 35L0 29Z" fill="#fcfefe"></path><path d="M0 181L13.7 183C27.3 185 54.7 189 82 202C109.3 215 136.7 237 163.8 240C191 243 218 227 245.2 234C272.3 241 299.7 271 327 282C354.3 293 381.7 285 409 286C436.3 287 463.7 297 491 298C518.3 299 545.7 291 573 285C600.3 279 627.7 275 654.8 276C682 277 709 283 736.2 275C763.3 267 790.7 245 818 232C845.3 219 872.7 215 886.3 213L900 211L900 119L886.3 124C872.7 129 845.3 139 818 156C790.7 173 763.3 197 736.2 201C709 205 682 189 654.8 188C627.7 187 600.3 201 573 206C545.7 211 518.3 207 491 205C463.7 203 436.3 203 409 207C381.7 211 354.3 219 327 212C299.7 205 272.3 183 245.2 178C218 173 191 185 163.8 182C136.7 179 109.3 161 82 147C54.7 133 27.3 123 13.7 118L0 113Z" fill="#f9fdfe"></path><path d="M0 223L13.7 221C27.3 219 54.7 215 82 226C109.3 237 136.7 263 163.8 267C191 271 218 253 245.2 264C272.3 275 299.7 315 327 330C354.3 345 381.7 335 409 334C436.3 333 463.7 341 491 339C518.3 337 545.7 325 573 319C600.3 313 627.7 313 654.8 315C682 317 709 321 736.2 313C763.3 305 790.7 285 818 275C845.3 265 872.7 265 886.3 265L900 265L900 209L886.3 211C872.7 213 845.3 217 818 230C790.7 243 763.3 265 736.2 273C709 281 682 275 654.8 274C627.7 273 600.3 277 573 283C545.7 289 518.3 297 491 296C463.7 295 436.3 285 409 284C381.7 283 354.3 291 327 280C299.7 269 272.3 239 245.2 232C218 225 191 241 163.8 238C136.7 235 109.3 213 82 200C54.7 187 27.3 183 13.7 181L0 179Z" fill="#f7fdfd"></path><path d="M0 241L13.7 240C27.3 239 54.7 237 82 254C109.3 271 136.7 307 163.8 311C191 315 218 287 245.2 298C272.3 309 299.7 359 327 379C354.3 399 381.7 389 409 386C436.3 383 463.7 387 491 384C518.3 381 545.7 371 573 362C600.3 353 627.7 345 654.8 347C682 349 709 361 736.2 353C763.3 345 790.7 317 818 304C845.3 291 872.7 293 886.3 294L900 295L900 263L886.3 263C872.7 263 845.3 263 818 273C790.7 283 763.3 303 736.2 311C709 319 682 315 654.8 313C627.7 311 600.3 311 573 317C545.7 323 518.3 335 491 337C463.7 339 436.3 331 409 332C381.7 333 354.3 343 327 328C299.7 313 272.3 273 245.2 262C218 251 191 269 163.8 265C136.7 261 109.3 235 82 224C54.7 213 27.3 217 13.7 219L0 221Z" fill="#f4fcfd"></path><path d="M0 283L13.7 282C27.3 281 54.7 279 82 299C109.3 319 136.7 361 163.8 369C191 377 218 351 245.2 359C272.3 367 299.7 409 327 425C354.3 441 381.7 431 409 427C436.3 423 463.7 425 491 420C518.3 415 545.7 403 573 396C600.3 389 627.7 387 654.8 392C682 397 709 409 736.2 403C763.3 397 790.7 373 818 362C845.3 351 872.7 353 886.3 354L900 355L900 293L886.3 292C872.7 291 845.3 289 818 302C790.7 315 763.3 343 736.2 351C709 359 682 347 654.8 345C627.7 343 600.3 351 573 360C545.7 369 518.3 379 491 382C463.7 385 436.3 381 409 384C381.7 387 354.3 397 327 377C299.7 357 272.3 307 245.2 296C218 285 191 313 163.8 309C136.7 305 109.3 269 82 252C54.7 235 27.3 237 13.7 238L0 239Z" fill="#f1fbfc"></path><path d="M0 319L13.7 316C27.3 313 54.7 307 82 327C109.3 347 136.7 393 163.8 401C191 409 218 379 245.2 386C272.3 393 299.7 437 327 455C354.3 473 381.7 465 409 459C436.3 453 463.7 449 491 441C518.3 433 545.7 421 573 415C600.3 409 627.7 409 654.8 417C682 425 709 441 736.2 433C763.3 425 790.7 393 818 380C845.3 367 872.7 373 886.3 376L900 379L900 353L886.3 352C872.7 351 845.3 349 818 360C790.7 371 763.3 395 736.2 401C709 407 682 395 654.8 390C627.7 385 600.3 387 573 394C545.7 401 518.3 413 491 418C463.7 423 436.3 421 409 425C381.7 429 354.3 439 327 423C299.7 407 272.3 365 245.2 357C218 349 191 375 163.8 367C136.7 359 109.3 317 82 297C54.7 277 27.3 279 13.7 280L0 281Z" fill="#eefafc"></path><path d="M0 343L13.7 342C27.3 341 54.7 339 82 361C109.3 383 136.7 429 163.8 438C191 447 218 419 245.2 425C272.3 431 299.7 471 327 484C354.3 497 381.7 483 409 479C436.3 475 463.7 481 491 474C518.3 467 545.7 447 573 436C600.3 425 627.7 423 654.8 433C682 443 709 465 736.2 458C763.3 451 790.7 415 818 402C845.3 389 872.7 399 886.3 404L900 409L900 377L886.3 374C872.7 371 845.3 365 818 378C790.7 391 763.3 423 736.2 431C709 439 682 423 654.8 415C627.7 407 600.3 407 573 413C545.7 419 518.3 431 491 439C463.7 447 436.3 451 409 457C381.7 463 354.3 471 327 453C299.7 435 272.3 391 245.2 384C218 377 191 407 163.8 399C136.7 391 109.3 345 82 325C54.7 305 27.3 311 13.7 314L0 317Z" fill="#ebf9fb"></path><path d="M0 379L13.7 379C27.3 379 54.7 379 82 399C109.3 419 136.7 459 163.8 468C191 477 218 455 245.2 460C272.3 465 299.7 497 327 508C354.3 519 381.7 509 409 505C436.3 501 463.7 503 491 495C518.3 487 545.7 469 573 461C600.3 453 627.7 455 654.8 463C682 471 709 485 736.2 474C763.3 463 790.7 427 818 415C845.3 403 872.7 415 886.3 421L900 427L900 407L886.3 402C872.7 397 845.3 387 818 400C790.7 413 763.3 449 736.2 456C709 463 682 441 654.8 431C627.7 421 600.3 423 573 434C545.7 445 518.3 465 491 472C463.7 479 436.3 473 409 477C381.7 481 354.3 495 327 482C299.7 469 272.3 429 245.2 423C218 417 191 445 163.8 436C136.7 427 109.3 381 82 359C54.7 337 27.3 339 13.7 340L0 341Z" fill="#e9f9fb"></path><path d="M0 583L13.7 583C27.3 583 54.7 583 82 580C109.3 577 136.7 571 163.8 567C191 563 218 561 245.2 564C272.3 567 299.7 575 327 578C354.3 581 381.7 579 409 576C436.3 573 463.7 569 491 568C518.3 567 545.7 569 573 572C600.3 575 627.7 579 654.8 579C682 579 709 575 736.2 572C763.3 569 790.7 567 818 569C845.3 571 872.7 577 886.3 580L900 583L900 425L886.3 419C872.7 413 845.3 401 818 413C790.7 425 763.3 461 736.2 472C709 483 682 469 654.8 461C627.7 453 600.3 451 573 459C545.7 467 518.3 485 491 493C463.7 501 436.3 499 409 503C381.7 507 354.3 517 327 506C299.7 495 272.3 463 245.2 458C218 453 191 475 163.8 466C136.7 457 109.3 417 82 397C54.7 377 27.3 377 13.7 377L0 377Z" fill="#e6f8fa"></path><path d="M0 601L13.7 601C27.3 601 54.7 601 82 601C109.3 601 136.7 601 163.8 601C191 601 218 601 245.2 601C272.3 601 299.7 601 327 601C354.3 601 381.7 601 409 601C436.3 601 463.7 601 491 601C518.3 601 545.7 601 573 601C600.3 601 627.7 601 654.8 601C682 601 709 601 736.2 601C763.3 601 790.7 601 818 601C845.3 601 872.7 601 886.3 601L900 601L900 581L886.3 578C872.7 575 845.3 569 818 567C790.7 565 763.3 567 736.2 570C709 573 682 577 654.8 577C627.7 577 600.3 573 573 570C545.7 567 518.3 565 491 566C463.7 567 436.3 571 409 574C381.7 577 354.3 579 327 576C299.7 573 272.3 565 245.2 562C218 559 191 561 163.8 565C136.7 569 109.3 575 82 578C54.7 581 27.3 581 13.7 581L0 581Z" fill="#e3f7fa"></path></svg>