<svg xmlns="http://www.w3.org/2000/svg" xmlns:xlink="http://www.w3.org/1999/xlink" id="visual" version="1.1" viewBox="0 0 900 72"><path d="M0 72L21.5 69.3C43 66.7 86 61.3 128.8 52.8C171.7 44.3 214.3 32.7 257.2 34.2C300 35.7 343 50.3 385.8 55.2C428.7 60 471.3 55 514.2 49.3C557 43.7 600 37.3 642.8 36.7C685.7 36 728.3 41 771.2 37.8C814 34.7 857 23.3 878.5 17.7L900 12L900 0L878.5 0C857 0 814 0 771.2 0C728.3 0 685.7 0 642.8 0C600 0 557 0 514.2 0C471.3 0 428.7 0 385.8 0C343 0 300 0 257.2 0C214.3 0 171.7 0 128.8 0C86 0 43 0 21.5 0L0 0Z" fill="#f5f5f5" stroke-linecap="round" stroke-linejoin="miter"/></svg>