<svg id="visual" viewBox="0 0 1920 1080" width="1920" height="1080" xmlns="http://www.w3.org/2000/svg" xmlns:xlink="http://www.w3.org/1999/xlink" version="1.1"><g stroke-width="1" stroke-linejoin="bevel"><path d="M952 588L877 504L868 602Z" fill="#00101c" stroke="#00101c"></path><path d="M952 588L937 446L877 504Z" fill="#081a28" stroke="#081a28"></path><path d="M735 477L757 576L877 504Z" fill="#246688" stroke="#246688"></path><path d="M877 504L757 576L868 602Z" fill="#0c2435" stroke="#0c2435"></path><path d="M956 718L1042 608L952 588Z" fill="#112e42" stroke="#112e42"></path><path d="M952 588L1042 608L937 446Z" fill="#112e42" stroke="#112e42"></path><path d="M862 729L956 718L868 602Z" fill="#277297" stroke="#277297"></path><path d="M868 602L956 718L952 588Z" fill="#277297" stroke="#277297"></path><path d="M757 576L862 729L868 602Z" fill="#205a7a" stroke="#205a7a"></path><path d="M822 383L735 477L877 504Z" fill="#277297" stroke="#277297"></path><path d="M937 446L822 383L877 504Z" fill="#15384f" stroke="#15384f"></path><path d="M956 718L1076 693L1042 608Z" fill="#1d4e6b" stroke="#1d4e6b"></path><path d="M1180 608L1119 475L1042 608Z" fill="#00101c" stroke="#00101c"></path><path d="M1042 608L1119 475L937 446Z" fill="#0c2435" stroke="#0c2435"></path><path d="M937 446L996 335L822 383Z" fill="#277297" stroke="#277297"></path><path d="M1109 378L996 335L937 446Z" fill="#15384f" stroke="#15384f"></path><path d="M635 626L745 748L757 576Z" fill="#0c2435" stroke="#0c2435"></path><path d="M757 576L745 748L862 729Z" fill="#00101c" stroke="#00101c"></path><path d="M862 729L997 828L956 718Z" fill="#081a28" stroke="#081a28"></path><path d="M1119 475L1109 378L937 446Z" fill="#112e42" stroke="#112e42"></path><path d="M735 477L635 626L757 576Z" fill="#0c2435" stroke="#0c2435"></path><path d="M1076 693L1180 608L1042 608Z" fill="#205a7a" stroke="#205a7a"></path><path d="M1119 475L1178 351L1109 378Z" fill="#277297" stroke="#277297"></path><path d="M822 850L997 828L862 729Z" fill="#081a28" stroke="#081a28"></path><path d="M956 718L997 828L1076 693Z" fill="#0c2435" stroke="#0c2435"></path><path d="M1076 693L1182 706L1180 608Z" fill="#19435d" stroke="#19435d"></path><path d="M1180 608L1194 513L1119 475Z" fill="#15384f" stroke="#15384f"></path><path d="M619 739L747 810L745 748Z" fill="#297ea6" stroke="#297ea6"></path><path d="M745 748L747 810L862 729Z" fill="#277297" stroke="#277297"></path><path d="M747 810L822 850L862 729Z" fill="#277297" stroke="#277297"></path><path d="M822 383L691 326L735 477Z" fill="#297ea6" stroke="#297ea6"></path><path d="M735 477L588 505L635 626Z" fill="#15384f" stroke="#15384f"></path><path d="M712 251L691 326L822 383Z" fill="#246688" stroke="#246688"></path><path d="M1109 378L1041 272L996 335Z" fill="#00101c" stroke="#00101c"></path><path d="M996 335L838 243L822 383Z" fill="#19435d" stroke="#19435d"></path><path d="M1091 854L1182 706L1076 693Z" fill="#297ea6" stroke="#297ea6"></path><path d="M1180 608L1281 589L1194 513Z" fill="#081a28" stroke="#081a28"></path><path d="M600 345L588 505L735 477Z" fill="#246688" stroke="#246688"></path><path d="M970 243L838 243L996 335Z" fill="#00101c" stroke="#00101c"></path><path d="M1041 272L970 243L996 335Z" fill="#1d4e6b" stroke="#1d4e6b"></path><path d="M502 617L619 739L635 626Z" fill="#15384f" stroke="#15384f"></path><path d="M635 626L619 739L745 748Z" fill="#112e42" stroke="#112e42"></path><path d="M1194 513L1178 351L1119 475Z" fill="#081a28" stroke="#081a28"></path><path d="M1109 378L1178 351L1041 272Z" fill="#277297" stroke="#277297"></path><path d="M926 937L1091 854L997 828Z" fill="#297ea6" stroke="#297ea6"></path><path d="M997 828L1091 854L1076 693Z" fill="#112e42" stroke="#112e42"></path><path d="M838 243L712 251L822 383Z" fill="#15384f" stroke="#15384f"></path><path d="M691 326L600 345L735 477Z" fill="#081a28" stroke="#081a28"></path><path d="M584 256L600 345L691 326Z" fill="#19435d" stroke="#19435d"></path><path d="M1349 696L1281 589L1182 706Z" fill="#00101c" stroke="#00101c"></path><path d="M1182 706L1281 589L1180 608Z" fill="#297ea6" stroke="#297ea6"></path><path d="M1194 513L1330 483L1178 351Z" fill="#1d4e6b" stroke="#1d4e6b"></path><path d="M818 956L926 937L822 850Z" fill="#112e42" stroke="#112e42"></path><path d="M822 850L926 937L997 828Z" fill="#15384f" stroke="#15384f"></path><path d="M818 956L822 850L753 985Z" fill="#15384f" stroke="#15384f"></path><path d="M600 345L519 474L588 505Z" fill="#1d4e6b" stroke="#1d4e6b"></path><path d="M588 505L502 617L635 626Z" fill="#081a28" stroke="#081a28"></path><path d="M1176 995L1205 821L1091 854Z" fill="#205a7a" stroke="#205a7a"></path><path d="M1091 854L1205 821L1182 706Z" fill="#246688" stroke="#246688"></path><path d="M519 474L502 617L588 505Z" fill="#081a28" stroke="#081a28"></path><path d="M629 861L747 810L619 739Z" fill="#19435d" stroke="#19435d"></path><path d="M753 985L822 850L747 810Z" fill="#081a28" stroke="#081a28"></path><path d="M474 865L629 861L619 739Z" fill="#00101c" stroke="#00101c"></path><path d="M1047 152L970 243L1041 272Z" fill="#277297" stroke="#277297"></path><path d="M1047 152L931 130L970 243Z" fill="#205a7a" stroke="#205a7a"></path><path d="M970 243L931 130L838 243Z" fill="#246688" stroke="#246688"></path><path d="M838 243L701 144L712 251Z" fill="#205a7a" stroke="#205a7a"></path><path d="M1170 128L1047 152L1041 272Z" fill="#19435d" stroke="#19435d"></path><path d="M1479 622L1330 483L1281 589Z" fill="#112e42" stroke="#112e42"></path><path d="M1281 589L1330 483L1194 513Z" fill="#081a28" stroke="#081a28"></path><path d="M1178 351L1231 216L1041 272Z" fill="#00101c" stroke="#00101c"></path><path d="M712 251L584 256L691 326Z" fill="#246688" stroke="#246688"></path><path d="M600 345L491 374L519 474Z" fill="#297ea6" stroke="#297ea6"></path><path d="M701 144L584 256L712 251Z" fill="#277297" stroke="#277297"></path><path d="M508 277L491 374L600 345Z" fill="#00101c" stroke="#00101c"></path><path d="M342 624L452 687L502 617Z" fill="#112e42" stroke="#112e42"></path><path d="M629 861L753 985L747 810Z" fill="#205a7a" stroke="#205a7a"></path><path d="M963 1080L1105 982L926 937Z" fill="#297ea6" stroke="#297ea6"></path><path d="M807 99L701 144L838 243Z" fill="#19435d" stroke="#19435d"></path><path d="M1335 954L1299 803L1205 821Z" fill="#246688" stroke="#246688"></path><path d="M1205 821L1299 803L1182 706Z" fill="#081a28" stroke="#081a28"></path><path d="M931 130L807 99L838 243Z" fill="#0c2435" stroke="#0c2435"></path><path d="M837 0L807 99L931 130Z" fill="#19435d" stroke="#19435d"></path><path d="M1299 803L1349 696L1182 706Z" fill="#246688" stroke="#246688"></path><path d="M395 485L502 617L519 474Z" fill="#246688" stroke="#246688"></path><path d="M502 617L452 687L619 739Z" fill="#112e42" stroke="#112e42"></path><path d="M629 861L620 969L753 985Z" fill="#0c2435" stroke="#0c2435"></path><path d="M963 1080L926 937L838 1080Z" fill="#246688" stroke="#246688"></path><path d="M926 937L1105 982L1091 854Z" fill="#205a7a" stroke="#205a7a"></path><path d="M1338 250L1231 216L1178 351Z" fill="#246688" stroke="#246688"></path><path d="M1442 398L1348 394L1330 483Z" fill="#1d4e6b" stroke="#1d4e6b"></path><path d="M1330 483L1348 394L1178 351Z" fill="#0c2435" stroke="#0c2435"></path><path d="M584 256L508 277L600 345Z" fill="#277297" stroke="#277297"></path><path d="M443 120L508 277L584 256Z" fill="#19435d" stroke="#19435d"></path><path d="M511 979L620 969L629 861Z" fill="#081a28" stroke="#081a28"></path><path d="M1231 216L1170 128L1041 272Z" fill="#1d4e6b" stroke="#1d4e6b"></path><path d="M990 0L837 0L931 130Z" fill="#277297" stroke="#277297"></path><path d="M382 338L395 485L491 374Z" fill="#277297" stroke="#277297"></path><path d="M491 374L395 485L519 474Z" fill="#246688" stroke="#246688"></path><path d="M1112 1080L1176 995L1105 982Z" fill="#1d4e6b" stroke="#1d4e6b"></path><path d="M1105 982L1176 995L1091 854Z" fill="#277297" stroke="#277297"></path><path d="M838 1080L818 956L753 985Z" fill="#246688" stroke="#246688"></path><path d="M838 1080L926 937L818 956Z" fill="#081a28" stroke="#081a28"></path><path d="M685 1080L838 1080L753 985Z" fill="#15384f" stroke="#15384f"></path><path d="M399 874L474 865L452 687Z" fill="#081a28" stroke="#081a28"></path><path d="M452 687L474 865L619 739Z" fill="#246688" stroke="#246688"></path><path d="M1348 394L1338 250L1178 351Z" fill="#297ea6" stroke="#297ea6"></path><path d="M1319 0L1187 0L1170 128Z" fill="#246688" stroke="#246688"></path><path d="M1472 816L1426 686L1349 696Z" fill="#0c2435" stroke="#0c2435"></path><path d="M1349 696L1426 686L1281 589Z" fill="#19435d" stroke="#19435d"></path><path d="M1348 394L1442 398L1338 250Z" fill="#1d4e6b" stroke="#1d4e6b"></path><path d="M1472 816L1349 696L1299 803Z" fill="#081a28" stroke="#081a28"></path><path d="M744 0L626 83L701 144Z" fill="#15384f" stroke="#15384f"></path><path d="M701 144L626 83L584 256Z" fill="#277297" stroke="#277297"></path><path d="M744 0L701 144L807 99Z" fill="#297ea6" stroke="#297ea6"></path><path d="M990 0L931 130L1047 152Z" fill="#19435d" stroke="#19435d"></path><path d="M342 624L362 699L452 687Z" fill="#246688" stroke="#246688"></path><path d="M1460 481L1442 398L1330 483Z" fill="#297ea6" stroke="#297ea6"></path><path d="M1479 622L1460 481L1330 483Z" fill="#112e42" stroke="#112e42"></path><path d="M1119 0L990 0L1047 152Z" fill="#246688" stroke="#246688"></path><path d="M963 1080L1112 1080L1105 982Z" fill="#205a7a" stroke="#205a7a"></path><path d="M1176 995L1335 954L1205 821Z" fill="#297ea6" stroke="#297ea6"></path><path d="M344 265L382 338L508 277Z" fill="#081a28" stroke="#081a28"></path><path d="M508 277L382 338L491 374Z" fill="#081a28" stroke="#081a28"></path><path d="M395 485L342 624L502 617Z" fill="#15384f" stroke="#15384f"></path><path d="M253 504L342 624L395 485Z" fill="#297ea6" stroke="#297ea6"></path><path d="M620 1080L685 1080L620 969Z" fill="#00101c" stroke="#00101c"></path><path d="M620 969L685 1080L753 985Z" fill="#19435d" stroke="#19435d"></path><path d="M399 874L511 979L474 865Z" fill="#081a28" stroke="#081a28"></path><path d="M474 865L511 979L629 861Z" fill="#1d4e6b" stroke="#1d4e6b"></path><path d="M837 0L744 0L807 99Z" fill="#205a7a" stroke="#205a7a"></path><path d="M1548 748L1479 622L1426 686Z" fill="#0c2435" stroke="#0c2435"></path><path d="M1426 686L1479 622L1281 589Z" fill="#0c2435" stroke="#0c2435"></path><path d="M1236 1080L1335 954L1176 995Z" fill="#15384f" stroke="#15384f"></path><path d="M511 979L620 1080L620 969Z" fill="#297ea6" stroke="#297ea6"></path><path d="M1187 0L1119 0L1170 128Z" fill="#112e42" stroke="#112e42"></path><path d="M1170 128L1119 0L1047 152Z" fill="#081a28" stroke="#081a28"></path><path d="M362 699L399 874L452 687Z" fill="#277297" stroke="#277297"></path><path d="M271 803L399 874L362 699Z" fill="#15384f" stroke="#15384f"></path><path d="M1112 1080L1236 1080L1176 995Z" fill="#112e42" stroke="#112e42"></path><path d="M1359 111L1170 128L1231 216Z" fill="#081a28" stroke="#081a28"></path><path d="M1359 111L1231 216L1338 250Z" fill="#277297" stroke="#277297"></path><path d="M1423 929L1299 803L1335 954Z" fill="#112e42" stroke="#112e42"></path><path d="M1423 929L1472 816L1299 803Z" fill="#112e42" stroke="#112e42"></path><path d="M744 0L616 0L626 83Z" fill="#112e42" stroke="#112e42"></path><path d="M375 143L344 265L508 277Z" fill="#297ea6" stroke="#297ea6"></path><path d="M443 120L584 256L626 83Z" fill="#277297" stroke="#277297"></path><path d="M220 394L253 504L395 485Z" fill="#15384f" stroke="#15384f"></path><path d="M459 0L443 120L626 83Z" fill="#15384f" stroke="#15384f"></path><path d="M1444 216L1359 111L1338 250Z" fill="#081a28" stroke="#081a28"></path><path d="M1442 398L1444 216L1338 250Z" fill="#246688" stroke="#246688"></path><path d="M1554 366L1444 216L1442 398Z" fill="#0c2435" stroke="#0c2435"></path><path d="M1554 366L1442 398L1460 481Z" fill="#297ea6" stroke="#297ea6"></path><path d="M1355 1080L1423 929L1335 954Z" fill="#00101c" stroke="#00101c"></path><path d="M220 394L395 485L382 338Z" fill="#297ea6" stroke="#297ea6"></path><path d="M342 624L238 623L362 699Z" fill="#297ea6" stroke="#297ea6"></path><path d="M253 504L238 623L342 624Z" fill="#081a28" stroke="#081a28"></path><path d="M443 120L375 143L508 277Z" fill="#297ea6" stroke="#297ea6"></path><path d="M344 265L220 394L382 338Z" fill="#246688" stroke="#246688"></path><path d="M360 0L375 143L443 120Z" fill="#15384f" stroke="#15384f"></path><path d="M1472 816L1548 748L1426 686Z" fill="#246688" stroke="#246688"></path><path d="M1479 622L1573 492L1460 481Z" fill="#081a28" stroke="#081a28"></path><path d="M1543 821L1548 748L1472 816Z" fill="#1d4e6b" stroke="#1d4e6b"></path><path d="M1598 625L1573 492L1479 622Z" fill="#112e42" stroke="#112e42"></path><path d="M1573 492L1554 366L1460 481Z" fill="#1d4e6b" stroke="#1d4e6b"></path><path d="M350 957L511 979L399 874Z" fill="#081a28" stroke="#081a28"></path><path d="M350 957L472 1080L511 979Z" fill="#277297" stroke="#277297"></path><path d="M511 979L472 1080L620 1080Z" fill="#277297" stroke="#277297"></path><path d="M205 725L271 803L362 699Z" fill="#19435d" stroke="#19435d"></path><path d="M271 803L350 957L399 874Z" fill="#1d4e6b" stroke="#1d4e6b"></path><path d="M1599 88L1434 124L1444 216Z" fill="#246688" stroke="#246688"></path><path d="M1444 216L1434 124L1359 111Z" fill="#277297" stroke="#277297"></path><path d="M1359 111L1319 0L1170 128Z" fill="#1d4e6b" stroke="#1d4e6b"></path><path d="M1236 1080L1355 1080L1335 954Z" fill="#112e42" stroke="#112e42"></path><path d="M1423 929L1543 821L1472 816Z" fill="#15384f" stroke="#15384f"></path><path d="M1536 976L1543 821L1423 929Z" fill="#297ea6" stroke="#297ea6"></path><path d="M1548 748L1598 625L1479 622Z" fill="#277297" stroke="#277297"></path><path d="M1450 0L1319 0L1359 111Z" fill="#112e42" stroke="#112e42"></path><path d="M1648 604L1598 625L1673 688Z" fill="#277297" stroke="#277297"></path><path d="M1679 330L1593 250L1554 366Z" fill="#297ea6" stroke="#297ea6"></path><path d="M228 204L220 394L344 265Z" fill="#112e42" stroke="#112e42"></path><path d="M253 504L120 587L238 623Z" fill="#205a7a" stroke="#205a7a"></path><path d="M616 0L459 0L626 83Z" fill="#1d4e6b" stroke="#1d4e6b"></path><path d="M375 143L228 204L344 265Z" fill="#00101c" stroke="#00101c"></path><path d="M238 623L205 725L362 699Z" fill="#0c2435" stroke="#0c2435"></path><path d="M226 1080L372 1080L350 957Z" fill="#19435d" stroke="#19435d"></path><path d="M120 587L205 725L238 623Z" fill="#0c2435" stroke="#0c2435"></path><path d="M1673 688L1598 625L1548 748Z" fill="#19435d" stroke="#19435d"></path><path d="M1598 625L1648 604L1573 492Z" fill="#1d4e6b" stroke="#1d4e6b"></path><path d="M208 996L350 957L271 803Z" fill="#1d4e6b" stroke="#1d4e6b"></path><path d="M350 957L372 1080L472 1080Z" fill="#0c2435" stroke="#0c2435"></path><path d="M1554 366L1593 250L1444 216Z" fill="#00101c" stroke="#00101c"></path><path d="M1434 124L1450 0L1359 111Z" fill="#0c2435" stroke="#0c2435"></path><path d="M1656 458L1554 366L1573 492Z" fill="#19435d" stroke="#19435d"></path><path d="M1648 604L1656 458L1573 492Z" fill="#0c2435" stroke="#0c2435"></path><path d="M1456 1080L1536 976L1423 929Z" fill="#0c2435" stroke="#0c2435"></path><path d="M1650 827L1673 688L1548 748Z" fill="#205a7a" stroke="#205a7a"></path><path d="M1355 1080L1456 1080L1423 929Z" fill="#15384f" stroke="#15384f"></path><path d="M234 129L228 204L375 143Z" fill="#081a28" stroke="#081a28"></path><path d="M91 512L120 587L253 504Z" fill="#0c2435" stroke="#0c2435"></path><path d="M459 0L360 0L443 120Z" fill="#277297" stroke="#277297"></path><path d="M1599 88L1450 0L1434 124Z" fill="#112e42" stroke="#112e42"></path><path d="M1650 827L1548 748L1543 821Z" fill="#297ea6" stroke="#297ea6"></path><path d="M1648 604L1784 564L1656 458Z" fill="#112e42" stroke="#112e42"></path><path d="M91 512L253 504L220 394Z" fill="#277297" stroke="#277297"></path><path d="M205 725L117 749L271 803Z" fill="#0c2435" stroke="#0c2435"></path><path d="M360 0L234 129L375 143Z" fill="#246688" stroke="#246688"></path><path d="M96 355L91 512L220 394Z" fill="#0c2435" stroke="#0c2435"></path><path d="M1651 950L1650 827L1543 821Z" fill="#0c2435" stroke="#0c2435"></path><path d="M1785 375L1679 330L1656 458Z" fill="#15384f" stroke="#15384f"></path><path d="M1656 458L1679 330L1554 366Z" fill="#15384f" stroke="#15384f"></path><path d="M1593 250L1599 88L1444 216Z" fill="#246688" stroke="#246688"></path><path d="M120 587L117 749L205 725Z" fill="#297ea6" stroke="#297ea6"></path><path d="M96 355L220 394L228 204Z" fill="#297ea6" stroke="#297ea6"></path><path d="M120 587L0 696L117 749Z" fill="#00101c" stroke="#00101c"></path><path d="M1679 330L1671 269L1593 250Z" fill="#0c2435" stroke="#0c2435"></path><path d="M117 952L208 996L271 803Z" fill="#205a7a" stroke="#205a7a"></path><path d="M89 238L96 355L228 204Z" fill="#246688" stroke="#246688"></path><path d="M1695 157L1599 88L1593 250Z" fill="#297ea6" stroke="#297ea6"></path><path d="M1585 1080L1651 950L1536 976Z" fill="#15384f" stroke="#15384f"></path><path d="M1536 976L1651 950L1543 821Z" fill="#1d4e6b" stroke="#1d4e6b"></path><path d="M1802 719L1784 564L1673 688Z" fill="#246688" stroke="#246688"></path><path d="M147 1080L226 1080L208 996Z" fill="#19435d" stroke="#19435d"></path><path d="M208 996L226 1080L350 957Z" fill="#297ea6" stroke="#297ea6"></path><path d="M360 0L249 0L234 129Z" fill="#246688" stroke="#246688"></path><path d="M234 129L155 121L228 204Z" fill="#00101c" stroke="#00101c"></path><path d="M1456 1080L1585 1080L1536 976Z" fill="#15384f" stroke="#15384f"></path><path d="M249 0L155 121L234 129Z" fill="#112e42" stroke="#112e42"></path><path d="M0 864L91 865L117 749Z" fill="#15384f" stroke="#15384f"></path><path d="M117 749L91 865L271 803Z" fill="#112e42" stroke="#112e42"></path><path d="M0 479L0 611L91 512Z" fill="#081a28" stroke="#081a28"></path><path d="M91 512L0 611L120 587Z" fill="#19435d" stroke="#19435d"></path><path d="M155 121L89 238L228 204Z" fill="#15384f" stroke="#15384f"></path><path d="M1802 719L1673 688L1650 827Z" fill="#205a7a" stroke="#205a7a"></path><path d="M1673 688L1784 564L1648 604Z" fill="#205a7a" stroke="#205a7a"></path><path d="M1769 203L1695 157L1671 269Z" fill="#081a28" stroke="#081a28"></path><path d="M91 865L117 952L271 803Z" fill="#1d4e6b" stroke="#1d4e6b"></path><path d="M1700 0L1587 0L1599 88Z" fill="#112e42" stroke="#112e42"></path><path d="M1599 88L1587 0L1450 0Z" fill="#081a28" stroke="#081a28"></path><path d="M1695 157L1593 250L1671 269Z" fill="#19435d" stroke="#19435d"></path><path d="M1769 203L1671 269L1679 330Z" fill="#112e42" stroke="#112e42"></path><path d="M1784 564L1791 468L1656 458Z" fill="#081a28" stroke="#081a28"></path><path d="M1791 468L1785 375L1656 458Z" fill="#081a28" stroke="#081a28"></path><path d="M0 479L91 512L96 355Z" fill="#297ea6" stroke="#297ea6"></path><path d="M91 865L0 935L117 952Z" fill="#1d4e6b" stroke="#1d4e6b"></path><path d="M0 364L0 479L96 355Z" fill="#246688" stroke="#246688"></path><path d="M1835 850L1802 719L1650 827Z" fill="#297ea6" stroke="#297ea6"></path><path d="M1784 564L1920 497L1791 468Z" fill="#246688" stroke="#246688"></path><path d="M1835 850L1650 827L1651 950Z" fill="#297ea6" stroke="#297ea6"></path><path d="M0 611L0 696L120 587Z" fill="#081a28" stroke="#081a28"></path><path d="M0 1080L147 1080L117 952Z" fill="#297ea6" stroke="#297ea6"></path><path d="M117 952L147 1080L208 996Z" fill="#246688" stroke="#246688"></path><path d="M0 211L0 364L89 238Z" fill="#1d4e6b" stroke="#1d4e6b"></path><path d="M89 238L0 364L96 355Z" fill="#19435d" stroke="#19435d"></path><path d="M1585 1080L1664 1080L1651 950Z" fill="#205a7a" stroke="#205a7a"></path><path d="M1785 375L1769 203L1679 330Z" fill="#1d4e6b" stroke="#1d4e6b"></path><path d="M1695 157L1700 0L1599 88Z" fill="#297ea6" stroke="#297ea6"></path><path d="M0 696L0 864L117 749Z" fill="#277297" stroke="#277297"></path><path d="M249 0L118 0L155 121Z" fill="#297ea6" stroke="#297ea6"></path><path d="M0 153L0 211L89 238Z" fill="#297ea6" stroke="#297ea6"></path><path d="M0 153L89 238L155 121Z" fill="#205a7a" stroke="#205a7a"></path><path d="M1800 80L1700 0L1695 157Z" fill="#246688" stroke="#246688"></path><path d="M1836 944L1835 850L1651 950Z" fill="#205a7a" stroke="#205a7a"></path><path d="M1920 698L1920 566L1784 564Z" fill="#297ea6" stroke="#297ea6"></path><path d="M1920 276L1769 203L1785 375Z" fill="#205a7a" stroke="#205a7a"></path><path d="M1920 136L1800 80L1769 203Z" fill="#081a28" stroke="#081a28"></path><path d="M0 864L0 935L91 865Z" fill="#297ea6" stroke="#297ea6"></path><path d="M118 0L0 153L155 121Z" fill="#246688" stroke="#246688"></path><path d="M1768 1080L1836 944L1651 950Z" fill="#19435d" stroke="#19435d"></path><path d="M1664 1080L1768 1080L1651 950Z" fill="#277297" stroke="#277297"></path><path d="M1920 348L1785 375L1791 468Z" fill="#246688" stroke="#246688"></path><path d="M1769 203L1800 80L1695 157Z" fill="#205a7a" stroke="#205a7a"></path><path d="M1920 698L1802 719L1920 818Z" fill="#1d4e6b" stroke="#1d4e6b"></path><path d="M1920 698L1784 564L1802 719Z" fill="#081a28" stroke="#081a28"></path><path d="M1920 566L1920 497L1784 564Z" fill="#0c2435" stroke="#0c2435"></path><path d="M1920 818L1802 719L1835 850Z" fill="#112e42" stroke="#112e42"></path><path d="M1920 497L1920 348L1791 468Z" fill="#081a28" stroke="#081a28"></path><path d="M0 935L0 1080L117 952Z" fill="#246688" stroke="#246688"></path><path d="M1920 955L1920 818L1835 850Z" fill="#277297" stroke="#277297"></path><path d="M1920 955L1835 850L1836 944Z" fill="#15384f" stroke="#15384f"></path><path d="M1920 348L1920 276L1785 375Z" fill="#205a7a" stroke="#205a7a"></path><path d="M1920 0L1801 0L1800 80Z" fill="#297ea6" stroke="#297ea6"></path><path d="M1800 80L1801 0L1700 0Z" fill="#297ea6" stroke="#297ea6"></path><path d="M118 0L0 0L0 153Z" fill="#081a28" stroke="#081a28"></path><path d="M1920 1080L1920 955L1836 944Z" fill="#205a7a" stroke="#205a7a"></path><path d="M1920 276L1920 136L1769 203Z" fill="#00101c" stroke="#00101c"></path><path d="M1768 1080L1920 1080L1836 944Z" fill="#297ea6" stroke="#297ea6"></path><path d="M1920 136L1920 0L1800 80Z" fill="#277297" stroke="#277297"></path></g></svg>