<svg id="visual" viewBox="0 0 900 600" width="900" height="600" xmlns="http://www.w3.org/2000/svg" xmlns:xlink="http://www.w3.org/1999/xlink" version="1.1"><path d="M0 115L30 106C60 97 120 79 180 76C240 73 300 85 360 95C420 105 480 113 540 115C600 117 660 113 720 110C780 107 840 105 870 104L900 103L900 59L870 60C840 61 780 63 720 62C660 61 600 57 540 57C480 57 420 61 360 58C300 55 240 45 180 49C120 53 60 71 30 80L0 89Z" fill="#4c9855"></path><path d="M0 151L30 149C60 147 120 143 180 140C240 137 300 135 360 138C420 141 480 149 540 152C600 155 660 153 720 150C780 147 840 143 870 141L900 139L900 101L870 102C840 103 780 105 720 108C660 111 600 115 540 113C480 111 420 103 360 93C300 83 240 71 180 74C120 77 60 95 30 104L0 113Z" fill="#42864a"></path><path d="M0 361L30 351C60 341 120 321 180 303C240 285 300 269 360 279C420 289 480 325 540 340C600 355 660 349 720 346C780 343 840 343 870 343L900 343L900 137L870 139C840 141 780 145 720 148C660 151 600 153 540 150C480 147 420 139 360 136C300 133 240 135 180 138C120 141 60 145 30 147L0 149Z" fill="#3A7540"></path><path d="M0 403L30 396C60 389 120 375 180 359C240 343 300 325 360 336C420 347 480 387 540 404C600 421 660 415 720 409C780 403 840 397 870 394L900 391L900 341L870 341C840 341 780 341 720 344C660 347 600 353 540 338C480 323 420 287 360 277C300 267 240 283 180 301C120 319 60 339 30 349L0 359Z" fill="#42864a"></path><path d="M0 523L30 521C60 519 120 515 180 508C240 501 300 491 360 491C420 491 480 501 540 510C600 519 660 527 720 533C780 539 840 543 870 545L900 547L900 389L870 392C840 395 780 401 720 407C660 413 600 419 540 402C480 385 420 345 360 334C300 323 240 341 180 357C120 373 60 387 30 394L0 401Z" fill="#4c9855"></path></svg>