<svg id="visual" xmlns="http://www.w3.org/2000/svg" xmlns:xlink="http://www.w3.org/1999/xlink" version="1.1" viewBox="0 48.07 900 105.42">
  <path d="M0 115L30 106C60 97 120 79 180 76C240 73 300 85 360 95C420 105 480 113 540 115C600 117 660 113 720 110C780 107 840 105 870 104L900 103L900 59L870 60C840 61 780 63 720 62C660 61 600 57 540 57C480 57 420 61 360 58C300 55 240 45 180 49C120 53 60 71 30 80L0 89Z" fill="#4c9855"/>
  <path d="M0 151L30 149C60 147 120 143 180 140C240 137 300 135 360 138C420 141 480 149 540 152C600 155 660 153 720 150C780 147 840 143 870 141L900 139L900 101L870 102C840 103 780 105 720 108C660 111 600 115 540 113C480 111 420 103 360 93C300 83 240 71 180 74C120 77 60 95 30 104L0 113Z" fill="#42864a"/>
</svg>