<svg xmlns="http://www.w3.org/2000/svg" xmlns:xlink="http://www.w3.org/1999/xlink" id="visual" version="1.1" viewBox="0 0 960 541"><path d="M0 71L40 84.5C80 98 160 125 240 131.3C320 137.7 400 123.3 480 129.7C560 136 640 163 720 158.5C800 154 880 118 920 100L960 82L960 0L920 0C880 0 800 0 720 0C640 0 560 0 480 0C400 0 320 0 240 0C160 0 80 0 40 0L0 0Z" fill="#ffffff"/><path d="M0 163L40 167.5C80 172 160 181 240 193.7C320 206.3 400 222.7 480 239.8C560 257 640 275 720 260.5C800 246 880 199 920 175.5L960 152L960 80L920 98C880 116 800 152 720 156.5C640 161 560 134 480 127.7C400 121.3 320 135.7 240 129.3C160 123 80 96 40 82.5L0 69Z" fill="#ffffff"/><path d="M0 271L40 268.3C80 265.7 160 260.3 240 273C320 285.7 400 316.3 480 345.2C560 374 640 401 720 393.7C800 386.3 880 344.7 920 323.8L960 303L960 150L920 173.5C880 197 800 244 720 258.5C640 273 560 255 480 237.8C400 220.7 320 204.3 240 191.7C160 179 80 170 40 165.5L0 161Z" fill="#386f3e"/><path d="M0 352L40 349.3C80 346.7 160 341.3 240 345.8C320 350.3 400 364.7 480 389.8C560 415 640 451 720 448.3C800 445.7 880 404.3 920 383.7L960 363L960 301L920 321.8C880 342.7 800 384.3 720 391.7C640 399 560 372 480 343.2C400 314.3 320 283.7 240 271C160 258.3 80 263.7 40 266.3L0 269Z" fill="#ffffff"/><path d="M0 541L40 541C80 541 160 541 240 541C320 541 400 541 480 541C560 541 640 541 720 541C800 541 880 541 920 541L960 541L960 361L920 381.7C880 402.3 800 443.7 720 446.3C640 449 560 413 480 387.8C400 362.7 320 348.3 240 343.8C160 339.3 80 344.7 40 347.3L0 350Z" fill="#ffffff"/></svg>