<svg id="visual" viewBox="0 0 900 900" width="900" height="900" xmlns="http://www.w3.org/2000/svg" xmlns:xlink="http://www.w3.org/1999/xlink" version="1.1"><rect x="0" y="0" width="900" height="900" fill="#ffffff"></rect><g transform="translate(402.2083390793052 454.80617148986096)"><path d="M145.3 -204.6C206.2 -186.9 286 -176.9 339.1 -133.5C392.3 -90 418.8 -13 394 46.2C369.2 105.3 293.1 146.6 237.2 198.5C181.3 250.4 145.7 312.8 99 317.4C52.3 322.1 -5.5 269 -63.6 240.8C-121.6 212.7 -179.8 209.5 -216.9 180.4C-254.1 151.2 -270.1 96.2 -284.8 36.9C-299.6 -22.3 -313.1 -85.7 -305.7 -155.2C-298.3 -224.8 -270 -300.4 -215.5 -321C-161.1 -341.7 -80.6 -307.3 -19.2 -277.5C42.2 -247.6 84.3 -222.2 145.3 -204.6" fill="#b49fef"></path></g></svg>