<svg id="visual" viewBox="0 0 900 600" width="900" height="600" xmlns="http://www.w3.org/2000/svg" xmlns:xlink="http://www.w3.org/1999/xlink" version="1.1"><path d="M0 25L13.7 27C27.3 29 54.7 33 82 40C109.3 47 136.7 57 163.8 54C191 51 218 35 245.2 27C272.3 19 299.7 19 327 20C354.3 21 381.7 23 409 23C436.3 23 463.7 21 491 25C518.3 29 545.7 39 573 42C600.3 45 627.7 41 654.8 36C682 31 709 25 736.2 23C763.3 21 790.7 23 818 28C845.3 33 872.7 41 886.3 45L900 49L900 0L886.3 0C872.7 0 845.3 0 818 0C790.7 0 763.3 0 736.2 0C709 0 682 0 654.8 0C627.7 0 600.3 0 573 0C545.7 0 518.3 0 491 0C463.7 0 436.3 0 409 0C381.7 0 354.3 0 327 0C299.7 0 272.3 0 245.2 0C218 0 191 0 163.8 0C136.7 0 109.3 0 82 0C54.7 0 27.3 0 13.7 0L0 0Z" fill="#ffffff"></path><path d="M0 49L13.7 57C27.3 65 54.7 81 82 87C109.3 93 136.7 89 163.8 85C191 81 218 77 245.2 73C272.3 69 299.7 65 327 64C354.3 63 381.7 65 409 67C436.3 69 463.7 71 491 71C518.3 71 545.7 69 573 67C600.3 65 627.7 63 654.8 62C682 61 709 61 736.2 63C763.3 65 790.7 69 818 74C845.3 79 872.7 85 886.3 88L900 91L900 47L886.3 43C872.7 39 845.3 31 818 26C790.7 21 763.3 19 736.2 21C709 23 682 29 654.8 34C627.7 39 600.3 43 573 40C545.7 37 518.3 27 491 23C463.7 19 436.3 21 409 21C381.7 21 354.3 19 327 18C299.7 17 272.3 17 245.2 25C218 33 191 49 163.8 52C136.7 55 109.3 45 82 38C54.7 31 27.3 27 13.7 25L0 23Z" fill="#fdfcfd"></path><path d="M0 151L13.7 162C27.3 173 54.7 195 82 200C109.3 205 136.7 193 163.8 194C191 195 218 209 245.2 213C272.3 217 299.7 211 327 209C354.3 207 381.7 209 409 211C436.3 213 463.7 215 491 214C518.3 213 545.7 209 573 210C600.3 211 627.7 217 654.8 210C682 203 709 183 736.2 176C763.3 169 790.7 175 818 191C845.3 207 872.7 233 886.3 246L900 259L900 89L886.3 86C872.7 83 845.3 77 818 72C790.7 67 763.3 63 736.2 61C709 59 682 59 654.8 60C627.7 61 600.3 63 573 65C545.7 67 518.3 69 491 69C463.7 69 436.3 67 409 65C381.7 63 354.3 61 327 62C299.7 63 272.3 67 245.2 71C218 75 191 79 163.8 83C136.7 87 109.3 91 82 85C54.7 79 27.3 63 13.7 55L0 47Z" fill="#fcfafb"></path><path d="M0 343L13.7 348C27.3 353 54.7 363 82 358C109.3 353 136.7 333 163.8 323C191 313 218 313 245.2 311C272.3 309 299.7 305 327 301C354.3 297 381.7 293 409 294C436.3 295 463.7 301 491 305C518.3 309 545.7 311 573 306C600.3 301 627.7 289 654.8 289C682 289 709 301 736.2 309C763.3 317 790.7 321 818 330C845.3 339 872.7 353 886.3 360L900 367L900 257L886.3 244C872.7 231 845.3 205 818 189C790.7 173 763.3 167 736.2 174C709 181 682 201 654.8 208C627.7 215 600.3 209 573 208C545.7 207 518.3 211 491 212C463.7 213 436.3 211 409 209C381.7 207 354.3 205 327 207C299.7 209 272.3 215 245.2 211C218 207 191 193 163.8 192C136.7 191 109.3 203 82 198C54.7 193 27.3 171 13.7 160L0 149Z" fill="#faf7fa"></path><path d="M0 373L13.7 376C27.3 379 54.7 385 82 380C109.3 375 136.7 359 163.8 351C191 343 218 343 245.2 340C272.3 337 299.7 331 327 327C354.3 323 381.7 321 409 322C436.3 323 463.7 327 491 335C518.3 343 545.7 355 573 353C600.3 351 627.7 335 654.8 333C682 331 709 343 736.2 351C763.3 359 790.7 363 818 371C845.3 379 872.7 391 886.3 397L900 403L900 365L886.3 358C872.7 351 845.3 337 818 328C790.7 319 763.3 315 736.2 307C709 299 682 287 654.8 287C627.7 287 600.3 299 573 304C545.7 309 518.3 307 491 303C463.7 299 436.3 293 409 292C381.7 291 354.3 295 327 299C299.7 303 272.3 307 245.2 309C218 311 191 311 163.8 321C136.7 331 109.3 351 82 356C54.7 361 27.3 351 13.7 346L0 341Z" fill="#f9f4f8"></path><path d="M0 397L13.7 401C27.3 405 54.7 413 82 407C109.3 401 136.7 381 163.8 374C191 367 218 373 245.2 374C272.3 375 299.7 371 327 367C354.3 363 381.7 359 409 359C436.3 359 463.7 363 491 367C518.3 371 545.7 375 573 369C600.3 363 627.7 347 654.8 348C682 349 709 367 736.2 379C763.3 391 790.7 397 818 403C845.3 409 872.7 415 886.3 418L900 421L900 401L886.3 395C872.7 389 845.3 377 818 369C790.7 361 763.3 357 736.2 349C709 341 682 329 654.8 331C627.7 333 600.3 349 573 351C545.7 353 518.3 341 491 333C463.7 325 436.3 321 409 320C381.7 319 354.3 321 327 325C299.7 329 272.3 335 245.2 338C218 341 191 341 163.8 349C136.7 357 109.3 373 82 378C54.7 383 27.3 377 13.7 374L0 371Z" fill="#f7f2f6"></path><path d="M0 481L13.7 479C27.3 477 54.7 473 82 459C109.3 445 136.7 421 163.8 413C191 405 218 413 245.2 417C272.3 421 299.7 421 327 418C354.3 415 381.7 409 409 413C436.3 417 463.7 431 491 435C518.3 439 545.7 433 573 423C600.3 413 627.7 399 654.8 396C682 393 709 401 736.2 411C763.3 421 790.7 433 818 441C845.3 449 872.7 453 886.3 455L900 457L900 419L886.3 416C872.7 413 845.3 407 818 401C790.7 395 763.3 389 736.2 377C709 365 682 347 654.8 346C627.7 345 600.3 361 573 367C545.7 373 518.3 369 491 365C463.7 361 436.3 357 409 357C381.7 357 354.3 361 327 365C299.7 369 272.3 373 245.2 372C218 371 191 365 163.8 372C136.7 379 109.3 399 82 405C54.7 411 27.3 403 13.7 399L0 395Z" fill="#f6eff4"></path><path d="M0 517L13.7 518C27.3 519 54.7 521 82 514C109.3 507 136.7 491 163.8 488C191 485 218 495 245.2 500C272.3 505 299.7 505 327 502C354.3 499 381.7 493 409 493C436.3 493 463.7 499 491 497C518.3 495 545.7 485 573 478C600.3 471 627.7 467 654.8 468C682 469 709 475 736.2 481C763.3 487 790.7 493 818 495C845.3 497 872.7 495 886.3 494L900 493L900 455L886.3 453C872.7 451 845.3 447 818 439C790.7 431 763.3 419 736.2 409C709 399 682 391 654.8 394C627.7 397 600.3 411 573 421C545.7 431 518.3 437 491 433C463.7 429 436.3 415 409 411C381.7 407 354.3 413 327 416C299.7 419 272.3 419 245.2 415C218 411 191 403 163.8 411C136.7 419 109.3 443 82 457C54.7 471 27.3 475 13.7 477L0 479Z" fill="#f4ecf3"></path><path d="M0 535L13.7 537C27.3 539 54.7 543 82 538C109.3 533 136.7 519 163.8 516C191 513 218 521 245.2 525C272.3 529 299.7 529 327 525C354.3 521 381.7 513 409 511C436.3 509 463.7 513 491 512C518.3 511 545.7 505 573 504C600.3 503 627.7 507 654.8 508C682 509 709 507 736.2 512C763.3 517 790.7 529 818 534C845.3 539 872.7 537 886.3 536L900 535L900 491L886.3 492C872.7 493 845.3 495 818 493C790.7 491 763.3 485 736.2 479C709 473 682 467 654.8 466C627.7 465 600.3 469 573 476C545.7 483 518.3 493 491 495C463.7 497 436.3 491 409 491C381.7 491 354.3 497 327 500C299.7 503 272.3 503 245.2 498C218 493 191 483 163.8 486C136.7 489 109.3 505 82 512C54.7 519 27.3 517 13.7 516L0 515Z" fill="#f3eaf1"></path><path d="M0 601L13.7 601C27.3 601 54.7 601 82 601C109.3 601 136.7 601 163.8 601C191 601 218 601 245.2 601C272.3 601 299.7 601 327 601C354.3 601 381.7 601 409 601C436.3 601 463.7 601 491 601C518.3 601 545.7 601 573 601C600.3 601 627.7 601 654.8 601C682 601 709 601 736.2 601C763.3 601 790.7 601 818 601C845.3 601 872.7 601 886.3 601L900 601L900 533L886.3 534C872.7 535 845.3 537 818 532C790.7 527 763.3 515 736.2 510C709 505 682 507 654.8 506C627.7 505 600.3 501 573 502C545.7 503 518.3 509 491 510C463.7 511 436.3 507 409 509C381.7 511 354.3 519 327 523C299.7 527 272.3 527 245.2 523C218 519 191 511 163.8 514C136.7 517 109.3 531 82 536C54.7 541 27.3 537 13.7 535L0 533Z" fill="#f1e7ef"></path></svg>