<svg xmlns="http://www.w3.org/2000/svg" xmlns:xlink="http://www.w3.org/1999/xlink" id="visual" version="1.1" viewBox="0 364 900 87"><path d="M0 364L21.5 374.2C43 384.3 86 404.7 128.8 406C171.7 407.3 214.3 389.7 257.2 380.2C300 370.7 343 369.3 385.8 370C428.7 370.7 471.3 373.3 514.2 376.2C557 379 600 382 642.8 388.7C685.7 395.3 728.3 405.7 771.2 407.3C814 409 857 402 878.5 398.5L900 395L900 451L878.5 451C857 451 814 451 771.2 451C728.3 451 685.7 451 642.8 451C600 451 557 451 514.2 451C471.3 451 428.7 451 385.8 451C343 451 300 451 257.2 451C214.3 451 171.7 451 128.8 451C86 451 43 451 21.5 451L0 451Z" fill="#f5f5f5" stroke-linecap="round" stroke-linejoin="miter"/></svg>