<svg id="visual" viewBox="0 0 1920 1080" width="1920" height="1080" xmlns="http://www.w3.org/2000/svg" xmlns:xlink="http://www.w3.org/1999/xlink" version="1.1"><path d="M0 87L29.2 90.7C58.3 94.3 116.7 101.7 174.8 103.5C233 105.3 291 101.7 349.2 117.8C407.3 134 465.7 170 523.8 189.8C582 209.7 640 213.3 698.2 191.8C756.3 170.3 814.7 123.7 872.8 123.7C931 123.7 989 170.3 1047.2 188.3C1105.3 206.3 1163.7 195.7 1221.8 183C1280 170.3 1338 155.7 1396.2 157.3C1454.3 159 1512.7 177 1570.8 193.3C1629 209.7 1687 224.3 1745.2 219C1803.3 213.7 1861.7 188.3 1890.8 175.7L1920 163L1920 0L1890.8 0C1861.7 0 1803.3 0 1745.2 0C1687 0 1629 0 1570.8 0C1512.7 0 1454.3 0 1396.2 0C1338 0 1280 0 1221.8 0C1163.7 0 1105.3 0 1047.2 0C989 0 931 0 872.8 0C814.7 0 756.3 0 698.2 0C640 0 582 0 523.8 0C465.7 0 407.3 0 349.2 0C291 0 233 0 174.8 0C116.7 0 58.3 0 29.2 0L0 0Z" fill="#004cbb"></path><path d="M0 368L29.2 350C58.3 332 116.7 296 174.8 272.7C233 249.3 291 238.7 349.2 271.2C407.3 303.7 465.7 379.3 523.8 417.2C582 455 640 455 698.2 422.5C756.3 390 814.7 325 872.8 312.3C931 299.7 989 339.3 1047.2 344.8C1105.3 350.3 1163.7 321.7 1221.8 325.3C1280 329 1338 365 1396.2 379.3C1454.3 393.7 1512.7 386.3 1570.8 397C1629 407.7 1687 436.3 1745.2 418.3C1803.3 400.3 1861.7 335.7 1890.8 303.3L1920 271L1920 161L1890.8 173.7C1861.7 186.3 1803.3 211.7 1745.2 217C1687 222.3 1629 207.7 1570.8 191.3C1512.7 175 1454.3 157 1396.2 155.3C1338 153.7 1280 168.3 1221.8 181C1163.7 193.7 1105.3 204.3 1047.2 186.3C989 168.3 931 121.7 872.8 121.7C814.7 121.7 756.3 168.3 698.2 189.8C640 211.3 582 207.7 523.8 187.8C465.7 168 407.3 132 349.2 115.8C291 99.7 233 103.3 174.8 101.5C116.7 99.7 58.3 92.3 29.2 88.7L0 85Z" fill="#2573ff"></path><path d="M0 606L29.2 602.3C58.3 598.7 116.7 591.3 174.8 580.5C233 569.7 291 555.3 349.2 577C407.3 598.7 465.7 656.3 523.8 681.5C582 706.7 640 699.3 698.2 702.8C756.3 706.3 814.7 720.7 872.8 717.2C931 713.7 989 692.3 1047.2 678C1105.3 663.7 1163.7 656.3 1221.8 685C1280 713.7 1338 778.3 1396.2 787.3C1454.3 796.3 1512.7 749.7 1570.8 712C1629 674.3 1687 645.7 1745.2 636.7C1803.3 627.7 1861.7 638.3 1890.8 643.7L1920 649L1920 269L1890.8 301.3C1861.7 333.7 1803.3 398.3 1745.2 416.3C1687 434.3 1629 405.7 1570.8 395C1512.7 384.3 1454.3 391.7 1396.2 377.3C1338 363 1280 327 1221.8 323.3C1163.7 319.7 1105.3 348.3 1047.2 342.8C989 337.3 931 297.7 872.8 310.3C814.7 323 756.3 388 698.2 420.5C640 453 582 453 523.8 415.2C465.7 377.3 407.3 301.7 349.2 269.2C291 236.7 233 247.3 174.8 270.7C116.7 294 58.3 330 29.2 348L0 366Z" fill="#6198ff"></path><path d="M0 757L29.2 757C58.3 757 116.7 757 174.8 742.7C233 728.3 291 699.7 349.2 723C407.3 746.3 465.7 821.7 523.8 837.8C582 854 640 811 698.2 796.7C756.3 782.3 814.7 796.7 872.8 807.5C931 818.3 989 825.7 1047.2 811.3C1105.3 797 1163.7 761 1221.8 773.5C1280 786 1338 847 1396.2 868.5C1454.3 890 1512.7 872 1570.8 837.8C1629 803.7 1687 753.3 1745.2 740.8C1803.3 728.3 1861.7 753.7 1890.8 766.3L1920 779L1920 647L1890.8 641.7C1861.7 636.3 1803.3 625.7 1745.2 634.7C1687 643.7 1629 672.3 1570.8 710C1512.7 747.7 1454.3 794.3 1396.2 785.3C1338 776.3 1280 711.7 1221.8 683C1163.7 654.3 1105.3 661.7 1047.2 676C989 690.3 931 711.7 872.8 715.2C814.7 718.7 756.3 704.3 698.2 700.8C640 697.3 582 704.7 523.8 679.5C465.7 654.3 407.3 596.7 349.2 575C291 553.3 233 567.7 174.8 578.5C116.7 589.3 58.3 596.7 29.2 600.3L0 604Z" fill="#2573ff"></path><path d="M0 1081L29.2 1081C58.3 1081 116.7 1081 174.8 1081C233 1081 291 1081 349.2 1081C407.3 1081 465.7 1081 523.8 1081C582 1081 640 1081 698.2 1081C756.3 1081 814.7 1081 872.8 1081C931 1081 989 1081 1047.2 1081C1105.3 1081 1163.7 1081 1221.8 1081C1280 1081 1338 1081 1396.2 1081C1454.3 1081 1512.7 1081 1570.8 1081C1629 1081 1687 1081 1745.2 1081C1803.3 1081 1861.7 1081 1890.8 1081L1920 1081L1920 777L1890.8 764.3C1861.7 751.7 1803.3 726.3 1745.2 738.8C1687 751.3 1629 801.7 1570.8 835.8C1512.7 870 1454.3 888 1396.2 866.5C1338 845 1280 784 1221.8 771.5C1163.7 759 1105.3 795 1047.2 809.3C989 823.7 931 816.3 872.8 805.5C814.7 794.7 756.3 780.3 698.2 794.7C640 809 582 852 523.8 835.8C465.7 819.7 407.3 744.3 349.2 721C291 697.7 233 726.3 174.8 740.7C116.7 755 58.3 755 29.2 755L0 755Z" fill="#004cbb"></path></svg>